<?xml version="1.0" standalone="no"?>
<!DOCTYPE svg PUBLIC "-//W3C//DTD SVG 20010904//EN"
 "http://www.w3.org/TR/2001/REC-SVG-20010904/DTD/svg10.dtd">
<svg version="1.0" xmlns="http://www.w3.org/2000/svg"
 width="192.000000pt" height="192.000000pt" viewBox="0 0 192.000000 192.000000"
 preserveAspectRatio="xMidYMid meet">
<metadata>
Created by potrace 1.11, written by Peter Selinger 2001-2013
</metadata>
<g transform="translate(0.000000,192.000000) scale(0.100000,-0.100000)"
fill="#000000" stroke="none">
<path d="M1603 1910 c-12 -5 -29 -20 -38 -33 -20 -31 -11 -100 19 -140 19 -26
20 -29 4 -38 -45 -25 -76 -63 -102 -125 -32 -75 -45 -96 -43 -68 2 13 -5 19
-20 20 -13 1 -23 -4 -23 -10 0 -6 -5 -3 -11 7 -26 44 -89 -7 -89 -72 0 -21 5
-42 12 -49 16 -16 63 -15 77 2 11 13 17 12 46 -5 27 -16 38 -18 54 -9 12 6 21
14 21 19 0 4 13 22 29 40 l30 33 18 -34 c30 -55 77 -117 93 -121 8 -3 -13 -5
-47 -6 -34 0 -65 4 -68 9 -4 7 -55 9 -143 7 -84 -3 -123 -1 -102 4 21 5 -34 7
-140 5 -96 -2 -148 0 -115 4 54 6 49 7 -45 8 -58 1 -135 5 -173 9 l-67 6 15
23 c22 34 46 108 45 141 -1 15 2 40 6 56 8 34 -8 54 -61 78 -111 51 -215 -8
-220 -125 -4 -76 -4 -76 -22 -76 -10 0 -62 -16 -116 -37 -87 -33 -104 -43
-142 -88 -23 -27 -57 -74 -75 -103 -17 -28 -35 -52 -40 -52 -4 0 -10 -8 -13
-19 -4 -15 -18 -20 -81 -26 l-76 -7 0 -54 c0 -52 1 -54 27 -54 l27 0 -27 -28
c-26 -27 -27 -33 -27 -133 0 -57 5 -122 11 -144 6 -22 10 -49 9 -60 0 -11 -2
-41 -3 -67 -1 -25 -5 -50 -9 -54 -11 -10 -10 -26 1 -20 16 11 20 -38 5 -62 -8
-13 -14 -36 -12 -52 l3 -29 59 24 c61 25 115 68 118 94 1 9 4 -29 7 -84 l6
-100 30 0 30 0 3 152 c3 191 -4 184 159 144 l118 -28 3 -101 c2 -86 5 -101 20
-104 37 -8 52 3 52 41 l0 36 29 -50 c15 -27 45 -77 65 -110 20 -33 40 -71 43
-85 10 -44 33 -80 50 -80 9 0 22 -8 29 -17 12 -17 14 -17 49 1 26 14 35 25 32
38 -5 18 3 17 31 -6 20 -15 113 -46 138 -46 26 0 35 -18 22 -44 -9 -17 -19
-18 -136 -12 -70 4 -140 9 -157 12 l-30 5 28 -16 c36 -21 34 -25 -10 -22 -40
2 -40 2 -28 67 l6 35 -15 -34 c-38 -82 -13 -95 170 -88 150 5 187 17 192 60 4
37 -13 57 -52 57 -40 1 -109 32 -142 65 -30 30 -47 25 -34 -11 13 -34 14 -31
-21 -49 -29 -16 -31 -15 -36 4 -3 14 -13 21 -28 21 -24 0 -48 40 -29 47 5 2
27 12 49 23 33 16 20 18 -21 3 -6 -2 -30 28 -54 66 -24 38 -48 67 -53 64 -6
-3 -7 -1 -3 5 3 6 -2 37 -13 70 -11 32 -23 88 -27 124 -6 62 -8 66 -41 82 -28
13 -33 19 -24 30 13 16 -5 26 -45 26 -41 0 -103 30 -109 53 -4 12 -12 33 -18
46 -11 21 -8 27 27 57 l39 34 -31 11 c-22 7 -28 14 -22 22 89 112 100 113 100
11 0 -73 -1 -75 -23 -69 -14 4 -9 -1 13 -15 19 -12 53 -37 76 -56 23 -18 60
-40 83 -50 38 -15 46 -24 42 -47 -1 -5 3 -6 9 -2 6 4 10 -11 10 -39 0 -25 18
-100 39 -168 21 -68 44 -143 51 -167 6 -23 13 -41 16 -38 6 6 -27 141 -62 250
-13 43 -24 97 -24 120 0 52 -21 84 -69 104 -20 8 -48 24 -64 35 -26 19 -27 22
-27 119 l0 99 29 0 c23 0 30 -5 33 -22 2 -13 9 -22 16 -21 6 2 12 -4 12 -12 0
-20 32 -35 58 -28 17 4 22 13 22 39 0 34 0 34 49 34 l48 0 5 -251 c6 -256 9
-276 45 -262 10 4 13 39 13 158 l0 153 103 19 102 18 3 -133 3 -133 27 3 27 3
-4 204 -3 204 91 -5 c51 -3 94 -8 97 -11 4 -3 10 -164 15 -358 6 -194 11 -354
13 -356 1 -1 13 -4 27 -5 l24 -3 5 174 5 174 113 32 112 32 0 -107 c0 -59 3
-128 6 -154 6 -40 10 -46 30 -46 l24 0 2 343 3 342 83 15 82 14 0 128 0 127
-42 4 -43 4 43 1 c42 2 42 2 42 41 0 22 -5 42 -12 44 -10 4 -10 6 0 6 6 1 12
6 12 12 0 5 -4 8 -9 4 -5 -3 -13 -1 -16 5 -4 6 -3 10 2 9 20 -3 27 2 13 11
-10 6 -11 10 -2 10 6 0 12 12 12 28 0 15 -6 34 -12 41 -10 11 -10 13 0 7 9 -6
12 11 12 71 0 77 0 78 -34 101 -18 12 -63 28 -100 35 -46 9 -63 16 -56 23 6 6
8 29 3 59 -10 80 -61 113 -130 85z m87 -75 c0 -8 -9 -15 -19 -15 -19 0 -24
-24 -6 -26 6 -1 9 2 8 6 -3 12 25 21 32 10 3 -5 8 -22 11 -37 2 -16 7 -42 10
-59 4 -22 1 -34 -12 -45 -15 -12 -17 -12 -9 0 6 11 4 13 -11 8 -18 -7 -18 -6
-1 7 9 7 17 24 16 37 0 15 -3 18 -6 9 -7 -20 -34 -50 -45 -50 -11 0 -6 23 7
33 6 4 4 11 -5 17 -10 6 -11 10 -2 10 6 0 12 4 12 9 0 5 -9 7 -20 4 -11 -3
-17 -9 -14 -14 3 -5 -4 -9 -16 -9 -12 0 -18 5 -15 10 3 6 2 10 -2 10 -5 0 -9
12 -10 28 -1 15 1 21 4 15 2 -7 11 -13 18 -13 7 0 16 -6 19 -12 3 -7 4 1 3 17
-2 24 -6 30 -24 29 -24 -1 -33 15 -10 17 26 2 72 10 76 15 8 7 11 4 11 -11z
m-15 -183 c-3 -3 -11 0 -18 7 -9 10 -8 11 6 5 10 -3 15 -9 12 -12z m-250 -172
c-3 -5 -12 -10 -18 -10 -7 0 -6 4 3 10 19 12 23 12 15 0z m65 -23 c20 -17 21
-29 2 -47 -14 -13 -15 -12 -8 5 6 18 6 18 -12 2 -16 -15 -20 -15 -40 -1 -18
12 -20 19 -12 35 12 21 47 25 70 6z m-854 -27 l34 0 -27 -30 c-31 -36 -58 -39
-67 -7 -10 37 -7 50 10 43 9 -3 31 -6 50 -6z m207 -77 c-13 -2 -35 -2 -50 0
-16 2 -5 4 22 4 28 0 40 -2 28 -4z m-88 -23 c-3 -5 -1 -10 5 -10 6 0 8 -4 5
-10 -3 -6 1 -7 9 -4 9 3 16 14 16 23 0 11 7 7 25 -14 13 -16 25 -24 26 -17 2
12 5 27 9 40 1 4 5 -6 9 -23 4 -18 14 -31 25 -33 15 -3 18 0 14 16 -3 11 -2
26 3 33 7 11 9 11 9 -2 0 -9 9 -27 20 -40 l19 -24 1 33 c0 36 17 44 22 10 4
-31 30 -29 39 2 6 23 7 23 8 3 1 -12 4 -28 7 -36 4 -11 -1 -15 -18 -15 -13 0
-101 -11 -195 -24 -95 -13 -173 -24 -173 -24 0 1 9 24 19 51 15 38 24 50 40
49 11 0 18 3 15 7 -4 8 12 17 34 18 7 1 10 -3 7 -9z m325 -45 c0 -8 -4 -15
-10 -15 -5 0 -10 7 -10 15 0 8 5 15 10 15 6 0 10 -7 10 -15z m-411 -199 c-3
-3 -19 7 -36 23 -18 16 -29 32 -25 35 3 4 19 -7 36 -23 16 -17 28 -33 25 -35z
m1224 47 c-7 -2 -19 -2 -25 0 -7 3 -2 5 12 5 14 0 19 -2 13 -5z m-1687 -28 c8
-13 12 -30 8 -36 -4 -7 -3 -9 3 -6 14 9 24 -224 11 -240 -5 -7 -7 -16 -4 -22
7 -10 -16 -21 -45 -21 -10 0 -19 -4 -19 -8 0 -5 -16 -16 -35 -25 -43 -21 -60
-22 -25 -2 14 8 21 14 16 15 -5 0 -1 10 10 22 10 12 13 18 5 13 -22 -13 -2 37
23 57 l21 17 -22 65 c-13 36 -23 71 -23 79 0 22 42 117 51 117 5 0 16 -11 25
-25z m1631 19 c-3 -3 -12 -4 -19 -1 -8 3 -5 6 6 6 11 1 17 -2 13 -5z m-54 -11
c-7 -2 -19 -2 -25 0 -7 3 -2 5 12 5 14 0 19 -2 13 -5z m-50 -10 c-7 -2 -19 -2
-25 0 -7 3 -2 5 12 5 14 0 19 -2 13 -5z m-60 -10 c-7 -2 -19 -2 -25 0 -7 3 -2
5 12 5 14 0 19 -2 13 -5z m-50 -10 c-7 -2 -19 -2 -25 0 -7 3 -2 5 12 5 14 0
19 -2 13 -5z m-50 -10 c-7 -2 -19 -2 -25 0 -7 3 -2 5 12 5 14 0 19 -2 13 -5z
m-440 -10 c-7 -2 -19 -2 -25 0 -7 3 -2 5 12 5 14 0 19 -2 13 -5z m380 0 c-7
-2 -19 -2 -25 0 -7 3 -2 5 12 5 14 0 19 -2 13 -5z m-170 -10 c-13 -2 -33 -2
-45 0 -13 2 -3 4 22 4 25 0 35 -2 23 -4z m120 0 c-7 -2 -21 -2 -30 0 -10 3 -4
5 12 5 17 0 24 -2 18 -5z m-719 -26 c4 4 4 0 1 -9 -4 -9 -1 -26 5 -38 6 -12
10 -24 7 -26 -7 -7 -36 41 -42 72 -6 26 -5 27 8 12 8 -10 17 -15 21 -11z m941
-139 c9 -160 7 -180 -25 -189 -14 -3 -67 -18 -117 -32 -91 -25 -93 -25 -93 -6
0 17 5 20 28 14 17 -3 55 3 96 15 62 19 67 23 61 43 -27 85 -35 130 -35 194 0
78 -5 72 66 82 8 1 14 -38 19 -121z m-95 76 c0 -23 -2 -25 -16 -13 -18 14 -44
21 -44 11 0 -4 12 -18 25 -31 25 -23 33 -51 15 -51 -5 0 -10 -5 -10 -11 0 -5
4 -7 10 -4 6 4 7 -1 3 -11 -6 -15 -7 -15 -15 0 -7 12 -5 22 4 33 11 14 10 16
-9 11 -14 -4 -24 -1 -27 9 -4 9 -2 11 6 7 8 -5 9 -2 5 10 -4 10 -7 20 -7 22 0
3 -4 3 -9 0 -5 -4 -8 2 -7 11 3 15 22 25 69 32 4 0 7 -11 7 -25z m-462 7 c9
-5 12 -24 10 -52 l-3 -44 -98 -18 c-55 -10 -101 -16 -105 -13 -3 3 -7 35 -9
71 l-4 65 98 0 c54 0 104 -4 111 -9z m384 -76 c10 -42 14 -83 11 -93 -6 -18
-52 -61 -65 -62 -5 0 -8 52 -8 115 0 113 0 115 23 115 19 0 24 -9 39 -75z
m-1206 16 c-3 -4 3 -16 13 -25 10 -10 21 -13 22 -8 2 5 27 6 54 3 67 -8 41
-25 -34 -22 -43 1 -60 7 -74 23 -14 17 -15 23 -5 29 17 11 31 11 24 0z m1288
-107 c3 -9 6 -19 6 -24 0 -15 -36 1 -48 21 -11 17 -9 19 12 19 13 0 27 -7 30
-16z m-676 -781 c-10 -2 -26 -2 -35 0 -10 3 -2 5 17 5 19 0 27 -2 18 -5z m49
1 c-3 -3 -12 -4 -19 -1 -8 3 -5 6 6 6 11 1 17 -2 13 -5z"/>
<path d="M130 770 c-9 -6 -10 -10 -3 -10 6 0 15 5 18 10 8 12 4 12 -15 0z"/>
<path d="M1196 1406 c6 -16 4 -18 -14 -14 -23 6 -30 -6 -11 -18 6 -3 18 1 27
10 13 13 14 18 3 28 -10 11 -11 9 -5 -6z"/>
<path d="M905 100 c-16 -7 -17 -9 -3 -9 9 -1 19 -7 21 -13 4 -10 6 -10 6 0 1
13 41 17 41 4 0 -4 17 -6 38 -3 l37 5 -44 7 c-23 5 -50 10 -60 13 -9 2 -25 1
-36 -4z"/>
<path d="M860 79 c0 -5 5 -7 10 -4 6 3 10 8 10 11 0 2 -4 4 -10 4 -5 0 -10 -5
-10 -11z"/>
</g>
</svg>
